<svg width="800" height="130" version="1.1" viewBox="0 0 211.67 34.396" xmlns="http://www.w3.org/2000/svg"><g fill-rule="evenodd"><rect width="22.49" height="10.583" rx="1.0583" ry="1.0583" fill="#2998ac"/><rect x="47.625" y="11.906" width="22.49" height="10.583" rx="1.0583" ry="1.0583" fill="#e34c4d"/><rect x="95.25" y="11.906" width="23.812" height="10.583" rx="1.0583" ry="1.0583" fill="#e3a04c"/><rect x="120.39" y="11.906" width="22.49" height="10.583" rx="1.0583" ry="1.0583" fill="#ebb36e"/><rect x="144.2" y="11.906" width="46.302" height="10.583" rx="1.0583" ry="1.0583" fill="#ebb36e"/><rect x="144.2" y="23.812" width="22.49" height="10.583" rx="1.0583" ry="1.0583" fill="#84ce50"/><rect x="168.01" y="23.812" width="22.49" height="10.583" rx="1.0583" ry="1.0583" fill="#d3517e"/><rect x="71.438" y="11.906" width="22.49" height="10.583" rx="1.0583" ry="1.0583" fill="#fb6869"/><rect x="23.812" width="22.49" height="10.583" rx="1.0583" ry="1.0583" fill="#4ccce3"/><rect x="191.82" width="19.844" height="10.583" rx="1.0583" ry="1.0583" fill="#959595"/><rect x="47.625" width="142.88" height="10.583" rx="1.0583" ry="1.0583" fill="#4ccce3"/><g fill="#ffffff" font-family="'Noto Mono'" font-size="3.175px" stroke="#ffffff" stroke-linecap="round" stroke-linejoin="round" stroke-width=".26458" text-anchor="middle"><text x="11.20371" y="4.4932656" text-align="center" xml:space="preserve"><tspan x="11.20371" y="4.4932656">Recipe</tspan><tspan x="11.20371" y="8.4620152">Count</tspan></text><text x="34.938694" y="6.1117716" text-align="center" xml:space="preserve"><tspan x="34.938694" y="6.1117716" fill="#ffffff" font-size="3.175px" stroke="#ffffff" stroke-width=".26458">Recipe A</tspan></text><text x="58.813206" y="15.965434" text-align="center" xml:space="preserve"><tspan x="58.813206" y="15.965434">Name</tspan><tspan x="58.813206" y="19.934183">Length</tspan></text><text x="107.15935" y="16.399515" text-align="center" xml:space="preserve"><tspan x="107.15935" y="16.399515">Spice</tspan><tspan x="107.15935" y="20.368265">Count</tspan></text><text x="131.54649" y="18.018021" text-align="center" xml:space="preserve"><tspan x="131.54649" y="18.018021" fill="#ffffff" font-size="3.175px" stroke="#ffffff" stroke-width=".26458">Spice A</tspan></text><text x="155.43031" y="30.29014" text-align="center" xml:space="preserve"><tspan x="155.43031" y="30.29014" fill="#ffffff" font-size="3.175px" stroke="#ffffff" stroke-width=".26458">Position</tspan></text><text x="179.38698" y="30.226578" text-align="center" xml:space="preserve"><tspan x="179.38698" y="30.226578" fill="#ffffff" font-size="3.175px" stroke="#ffffff" stroke-width=".26458">Amount</tspan></text><text x="167.31097" y="18.018021" text-align="center" xml:space="preserve"><tspan x="167.31097" y="18.018021" fill="#ffffff" font-size="3.175px" stroke="#ffffff" stroke-width=".26458">Spice B</tspan></text><text x="82.68074" y="18.315678" text-align="center" xml:space="preserve"><tspan x="82.68074" y="18.315678" fill="#ffffff" font-size="3.175px" stroke="#ffffff" stroke-width=".26458">Name</tspan></text><text x="118.98964" y="6.1117716" text-align="center" xml:space="preserve"><tspan x="118.98964" y="6.1117716" fill="#ffffff" font-size="3.175px" stroke="#ffffff" stroke-width=".26458">Recipe B</tspan></text><text x="201.77039" y="6.4822917" text-align="center" xml:space="preserve"><tspan x="201.77039" y="6.4822917" fill="#ffffff" font-size="3.175px" stroke="#ffffff" stroke-width=".26458">Unused</tspan></text></g></g></svg>
